<svg version="1.1" id="Layer_1" x="0" y="0" xml:space="preserve" xmlns:xlink="http://www.w3.org/1999/xlink" xmlns="http://www.w3.org/2000/svg" viewBox="0 0 1010 1010"><defs id="defs883"><linearGradient id="linearGradient15144"><stop offset="0" id="stop15140" stop-color="#8ff0a4" stop-opacity="1"/><stop offset="1" id="stop15142" stop-color="#3584e4" stop-opacity="1"/></linearGradient><linearGradient xlink:href="#linearGradient15144" id="linearGradient1349" x1="27.53" y1="103.2" x2="165.67" y2="103.2" gradientUnits="userSpaceOnUse" gradientTransform="matrix(7.2386 0 0 7.25273 -194.25 -243.48)"/></defs><style type="text/css" id="style870">.st0{fill:none}</style><path id="path3886" d="M372.53 5a5.59 5.59 0 0 0-3.86 1.74L6.74 368.64c-1.45 1.45-2.18 2.91-1.46 5.09l133.2 494.63c0 1.45 1.44 2.9 3.61 3.63l494.4 132.73c1.46.72 3.62-.01 5.07-1.46l361.93-361.9c1.45-1.45 2.17-2.91.72-5.09L871.75 141.64c0-1.45-1.45-2.9-3.62-3.62L373.73 5.28a2.84 2.84 0 0 0-1.2-.28ZM503.8 233.43h272.32L503.8 506.3h204.25v204.65L503.8 506.3v386.55L117.99 506.3h385.8z" fill="url(#linearGradient1349)" fill-opacity="1" stroke-width="7.25"/></svg>