<?xml version="1.0" standalone="no"?>
<!DOCTYPE svg PUBLIC "-//W3C//DTD SVG 20010904//EN"
 "http://www.w3.org/TR/2001/REC-SVG-20010904/DTD/svg10.dtd">
<svg version="1.0" xmlns="http://www.w3.org/2000/svg"
 width="700.000000pt" height="700.000000pt" viewBox="0 0 700.000000 700.000000"
 preserveAspectRatio="xMidYMid meet">
<metadata>
Created by potrace 1.14, written by Peter Selinger 2001-2017
</metadata>
<g transform="translate(0.000000,700.000000) scale(0.100000,-0.100000)"
fill="#000000" stroke="none">
<path d="M2562 6955 c-9 -7 -583 -578 -1274 -1269 l-1256 -1257 20 -72 c11
-40 21 -79 23 -87 2 -8 19 -76 40 -150 20 -74 45 -169 56 -210 11 -41 39 -142
61 -225 22 -82 60 -224 85 -315 24 -91 54 -203 67 -250 13 -47 40 -148 60
-225 21 -77 71 -264 112 -415 40 -151 83 -311 95 -355 12 -44 25 -91 29 -105
4 -14 17 -61 29 -105 12 -44 57 -213 101 -375 44 -162 82 -304 85 -315 2 -11
9 -36 14 -55 5 -19 19 -71 31 -115 12 -44 25 -83 29 -88 6 -6 351 -101 826
-228 83 -22 157 -42 165 -44 54 -15 266 -72 375 -101 72 -19 135 -36 140 -38
6 -2 24 -6 40 -11 103 -26 555 -147 580 -154 17 -6 84 -24 150 -41 66 -18 194
-52 285 -77 91 -24 206 -55 255 -68 97 -26 154 -41 280 -75 355 -96 343 -93
363 -91 17 1 2544 2530 2538 2539 -4 8 -14 42 -75 272 -38 140 -78 288 -103
380 -19 71 -34 126 -42 160 -2 8 -54 202 -116 430 -61 228 -113 422 -115 430
-2 8 -13 51 -25 95 -12 44 -35 132 -52 195 -17 63 -42 156 -55 205 -13 50 -26
97 -28 105 -2 8 -45 168 -95 355 -83 306 -109 402 -194 724 -13 51 -29 98 -34
103 -5 5 -92 32 -193 59 -101 27 -206 56 -234 64 -27 7 -162 44 -300 80 -387
104 -406 109 -645 173 -124 33 -259 70 -300 81 -41 11 -253 68 -470 126 -217
59 -402 108 -411 110 -18 4 -222 59 -279 75 -37 11 -254 69 -280 75 -8 2 -88
24 -178 48 -133 36 -165 42 -180 32z m2808 -1575 c0 -3 -422 -428 -937 -945
l-937 -940 706 -5 705 -5 0 -702 c0 -387 -1 -703 -4 -703 -2 0 -321 318 -708
707 l-705 707 -2 -1337 -3 -1338 -1334 1336 -1334 1335 1337 0 1336 0 0 944 0
945 33 3 c56 5 1847 3 1847 -2z"/>
</g>
</svg>
